<svg xmlns="http://www.w3.org/2000/svg" viewBox="0 0 100 100" width="100" height="100">
  <defs>
    <linearGradient id="logoGradient" x1="0%" y1="0%" x2="100%" y2="100%">
      <stop offset="0%" style="stop-color:#1e3a8a;stop-opacity:1" />
      <stop offset="100%" style="stop-color:#1d4ed8;stop-opacity:1" />
    </linearGradient>
    <linearGradient id="goldGradient" x1="0%" y1="0%" x2="100%" y2="100%">
      <stop offset="0%" style="stop-color:#fbbf24;stop-opacity:1" />
      <stop offset="100%" style="stop-color:#f59e0b;stop-opacity:1" />
    </linearGradient>
  </defs>
  
  <!-- Background Circle -->
  <circle cx="50" cy="50" r="48" fill="url(#logoGradient)" stroke="url(#goldGradient)" stroke-width="2"/>
  
  <!-- Building/Government Symbol -->
  <g transform="translate(50,50)">
    <!-- Main Building -->
    <rect x="-20" y="-10" width="40" height="25" fill="white" rx="2"/>
    
    <!-- Columns -->
    <rect x="-18" y="-8" width="4" height="20" fill="url(#logoGradient)"/>
    <rect x="-8" y="-8" width="4" height="20" fill="url(#logoGradient)"/>
    <rect x="2" y="-8" width="4" height="20" fill="url(#logoGradient)"/>
    <rect x="12" y="-8" width="4" height="20" fill="url(#logoGradient)"/>
    
    <!-- Roof -->
    <polygon points="-25,-12 0,-25 25,-12" fill="url(#goldGradient)"/>
    
    <!-- Flag -->
    <rect x="-2" y="-35" width="4" height="15" fill="url(#logoGradient)"/>
    <polygon points="2,-35 2,-30 12,-32.5" fill="url(#goldGradient)"/>
    
    <!-- Steps -->
    <rect x="-22" y="12" width="44" height="3" fill="url(#goldGradient)"/>
    <rect x="-24" y="15" width="48" height="3" fill="url(#logoGradient)" opacity="0.8"/>
    
    <!-- Decorative Elements -->
    <circle cx="-15" cy="0" r="1.5" fill="url(#goldGradient)"/>
    <circle cx="-5" cy="0" r="1.5" fill="url(#goldGradient)"/>
    <circle cx="5" cy="0" r="1.5" fill="url(#goldGradient)"/>
    <circle cx="15" cy="0" r="1.5" fill="url(#goldGradient)"/>
  </g>
  
  <!-- Text Elements -->
  <text x="50" y="85" text-anchor="middle" font-family="Arial, sans-serif" font-size="8" font-weight="bold" fill="white">RAJAGALUH</text>
</svg>
